<?xml version="1.0" encoding="utf-8"?>
<!-- Generator: Adobe Illustrator 16.0.0, SVG Export Plug-In . SVG Version: 6.00 Build 0)  -->
<!DOCTYPE svg PUBLIC "-//W3C//DTD SVG 1.1//EN" "http://www.w3.org/Graphics/SVG/1.1/DTD/svg11.dtd">
<svg version="1.1" id="Layer_1" xmlns="http://www.w3.org/2000/svg" xmlns:xlink="http://www.w3.org/1999/xlink" x="0px" y="0px"
	 width="359px" height="68px" viewBox="0 0 359 68" enable-background="new 0 0 359 68" xml:space="preserve">
<path fill="#000000" d="M66.438,44.119h-1.029l-0.146-8.515h1.203c0.882,4.844,3.346,7.37,7.105,7.37c3.2,0,4.962-1.616,4.962-4.201
	c0-1.23-0.471-2.199-1.292-2.788c-1.029-0.735-2.673-1.027-4.815-1.614c-4.699-1.263-6.959-2.438-6.959-6.314
	c0-3.641,2.436-5.99,6.253-5.99c2.144,0,4.023,0.705,5.49,2.055l1.145-1.761h1.088l0.322,7.634h-1.145
	c-1.116-4.374-3.437-6.576-6.9-6.576c-2.584,0-4.051,1.292-4.051,3.552c0,2.818,2.2,3.141,6.106,4.11
	c2.114,0.528,3.876,0.969,5.226,2.202c1.145,1.058,1.792,2.642,1.792,4.521c0,4.082-2.585,6.489-7.281,6.489
	c-2.291,0-4.433-0.821-5.843-2.202L66.438,44.119"/>
<path fill="#000000" d="M81.086,31.464V30.29c2.407-0.177,3.789-2.261,3.933-6.079h1.235v5.961h4.229v1.292h-4.376v8.486
	c0,1.674,0.322,2.496,1.732,2.496c1.614,0,2.349-1.291,2.438-3.993h1.084v0.381c0,3.554-1.614,5.432-4.578,5.432
	c-2.643,0-3.347-1.291-3.347-4.052v-8.75H81.086"/>
<path fill="#000000" d="M98.759,29.702c3.878,0,6.576,2.907,6.576,7.281c0,4.375-2.73,7.253-6.576,7.253s-6.604-2.878-6.604-7.253
	C92.155,32.609,94.885,29.702,98.759,29.702 M98.731,43.031c2.583,0,3.612-1.908,3.612-6.049c0-4.138-1.029-6.076-3.584-6.076
	s-3.581,1.938-3.581,6.076C95.179,41.095,96.235,43.031,98.731,43.031"/>
<path fill="#000000" d="M106.042,42.533l1.262-0.059c0.822-0.028,0.969-0.235,0.969-1.086v-8.925c0-0.969-0.353-1.174-1.614-1.174
	c-0.266,0-0.56,0.028-0.882,0.028v-1.145l5.021-0.353v2.818c1.322-1.938,2.789-2.818,4.815-2.818c2.789,0,4.434,1.674,4.434,4.698
	v6.87c0,0.851,0.176,1.058,0.969,1.086l1.261,0.059v1.233h-7.105v-1.233l1.263-0.059c0.764-0.028,0.969-0.235,0.969-1.086V34.4
	c0-1.761-0.969-2.76-2.702-2.76c-2.464,0-3.757,1.644-3.757,4.905v4.844c0,0.82,0.117,1.058,0.969,1.086l1.233,0.059v1.233h-7.104
	V42.533"/>
<path fill="#000000" d="M123.714,32.667c-0.204-0.441-0.439-0.792-0.675-0.938c-0.351-0.234-0.88-0.323-1.583-0.323v-1.235h6.84
	v1.235h-0.735c-0.851,0-1.173,0.089-1.173,0.617c0,0.175,0.117,0.469,0.294,0.911l3.111,7.165l2.936-7.049
	c0.059-0.176,0.147-0.351,0.147-0.645c0-0.822-0.586-0.969-2.055-0.998v-1.235h5.667v1.235c-1.087,0-1.732,0.498-2.204,1.585
	l-4.96,11.539c-1.527,3.552-3.141,5.343-5.696,5.343c-1.732,0-2.704-0.881-2.704-2.259c0-0.971,0.735-1.734,1.765-1.734
	c0.939,0,1.525,0.558,1.525,1.438c0,0.5-0.234,0.735-0.234,0.851c0,0.207,0.175,0.324,0.528,0.324c0.939,0,2.408-1.556,3.669-4.608
	l0.206-0.471L123.714,32.667"/>
<path fill="#000000" d="M141.768,42.388h1.527c1.175,0,1.556-0.266,1.556-1.41V25.359c0-1.146-0.381-1.41-1.556-1.41h-1.527v-1.38
	h11.099c4.168,0,6.342,1.821,6.342,5.167c0,2.523-1.646,4.199-4.932,4.904c4.05,0.528,6.016,2.319,6.016,5.432
	c0,3.552-2.758,5.694-7.779,5.694h-10.747V42.388 M147.993,32.139h2.35c3.788,0,5.46-0.878,5.46-4.14c0-2.964-1.322-4.11-4.493-4.11
	h-1.848c-1.205,0-1.469,0.294-1.469,1.292V32.139z M147.993,41.008c0,1.086,0.294,1.38,1.616,1.38h2.085
	c3.494,0,5.019-1.232,5.019-4.404c0-3.348-1.85-4.553-6.077-4.553h-2.644V41.008z"/>
<path fill="#000000" d="M167.104,42.475l1.793,0.059v1.233h-7.723v-1.233l1.38-0.059c0.822-0.028,0.969-0.266,0.969-1.086v-8.925
	c0-1.029-0.382-1.146-1.761-1.146h-0.882v-1.145l5.109-0.351v4.138c0.911-2.79,2.409-4.229,4.286-4.229
	c1.585,0,2.673,1.087,2.673,2.496c0,1.086-0.733,1.819-1.703,1.819c-1.086,0-1.733-0.673-1.733-1.674
	c0-0.528,0.206-0.997,0.586-1.259h-0.175c-1.851,0-3.788,2.788-3.788,7.134v3.141C166.136,42.209,166.285,42.446,167.104,42.475"/>
<path fill="#000000" d="M179.903,29.702c3.876,0,6.578,2.907,6.578,7.281c0,4.375-2.73,7.253-6.578,7.253
	c-3.846,0-6.606-2.878-6.606-7.253C173.297,32.609,176.027,29.702,179.903,29.702 M179.873,43.031c2.587,0,3.612-1.908,3.612-6.049
	c0-4.138-1.025-6.076-3.582-6.076c-2.555,0-3.582,1.938-3.582,6.076C176.321,41.095,177.377,43.031,179.873,43.031"/>
<path fill="#000000" d="M194.407,29.702c3.874,0,6.576,2.907,6.576,7.281c0,4.375-2.729,7.253-6.576,7.253
	c-3.846,0-6.608-2.878-6.608-7.253C187.799,32.609,190.531,29.702,194.407,29.702 M194.377,43.031c2.583,0,3.612-1.908,3.612-6.049
	c0-4.138-1.029-6.076-3.582-6.076c-2.555,0-3.582,1.938-3.582,6.076C190.825,41.095,191.881,43.031,194.377,43.031"/>
<path fill="#000000" d="M201.042,42.533l1.321-0.059c0.822-0.028,0.998-0.266,0.998-1.086V24.683c0-0.969-0.353-1.176-1.614-1.176
	c-0.234,0-0.528,0.03-0.854,0.03V22.39l5.14-0.351v14.535l4.521-4.141c0.207-0.208,0.354-0.498,0.354-0.647
	c0-0.381-0.47-0.498-1.499-0.498h-0.939v-1.116h7.518v1.116h-0.176c-1.908,0-3.054,0.909-4.551,2.289l-1.499,1.38l4.611,6.137
	c0.731,0.997,1.556,1.38,2.905,1.438v1.233h-7.575v-1.233l0.883-0.059c0.675-0.028,1.025-0.088,1.025-0.441
	c0-0.233-0.117-0.381-0.264-0.588l-3.524-4.756l-1.791,1.585v3.114c0,0.851,0.178,1.058,0.999,1.086l1.292,0.059v1.233h-7.281
	V42.533"/>
<path fill="#990000" d="M231.545,22.569v1.38h-1.527c-1.174,0-1.555,0.294-1.555,1.41v11.859c0,3.73,1.85,5.432,5.871,5.432
	c2.643,0,4.404-0.939,5.226-2.73c0.381-0.822,0.441-2.174,0.441-4.08v-9.249c0-1.791-0.383-2.642-2.113-2.642h-1.292v-1.38h8.075
	v1.38h-1.09c-1.672,0-2.142,0.764-2.142,2.642v9.366c0,5.754-2.113,8.311-8.134,8.311c-5.314,0-8.016-2.379-8.016-7.077V25.359
	c0-1.116-0.323-1.41-1.554-1.41h-1.705v-1.38H231.545"/>
<path fill="#990000" d="M243.257,42.533l1.264-0.059c0.82-0.028,0.967-0.235,0.967-1.086v-8.925c0-0.969-0.351-1.174-1.613-1.174
	c-0.265,0-0.559,0.028-0.883,0.028v-1.145l5.022-0.353v2.818c1.32-1.938,2.789-2.818,4.815-2.818c2.786,0,4.433,1.674,4.433,4.698
	v6.87c0,0.851,0.177,1.058,0.969,1.086l1.264,0.059v1.233h-7.106v-1.233l1.262-0.059c0.764-0.028,0.969-0.235,0.969-1.086V34.4
	c0-1.761-0.969-2.76-2.701-2.76c-2.465,0-3.756,1.644-3.756,4.905v4.844c0,0.82,0.115,1.058,0.969,1.086l1.231,0.059v1.233h-7.104
	V42.533"/>
<path fill="#990000" d="M260.02,42.533l1.41-0.059c0.822-0.03,1-0.266,1-1.086v-8.925c0-0.969-0.353-1.176-1.616-1.176
	c-0.235,0-0.528,0.028-0.851,0.028v-1.145l5.138-0.351v11.568c0,0.851,0.176,1.056,0.998,1.086l1.291,0.059v1.233h-7.37V42.533
	 M265.453,24.27c0,0.969-0.793,1.732-1.763,1.732c-0.969,0-1.732-0.822-1.732-1.732c0-0.939,0.794-1.733,1.732-1.733
	C264.631,22.537,265.453,23.301,265.453,24.27"/>
<path fill="#990000" d="M274.055,44.235l-5.079-11.657c-0.383-0.909-0.792-1.173-1.908-1.173h-0.207v-1.235h6.577v1.235
	c-1.232,0.028-1.761,0.117-1.761,0.673c0,0.179,0.115,0.471,0.321,0.941l3.173,7.311l2.612-6.753
	c0.176-0.47,0.295-0.853,0.295-1.173c0-0.619-0.559-1-1.616-1h-0.322v-1.235h5.695v1.235c-1.321,0.028-1.938,0.673-2.496,2.055
	l-4.374,10.774H274.055"/>
<path fill="#990000" d="M284.507,37.778c0,3.111,1.584,4.902,3.902,4.902c2.027,0,3.583-1.057,4.669-3.172l1.027,0.589
	c-1.292,2.76-3.377,4.14-6.193,4.14c-3.701,0-6.375-2.849-6.375-7.253c0-4.375,2.644-7.281,6.375-7.281
	c3.785,0,6.193,2.613,6.193,6.959v0.528h-9.572C284.533,37.396,284.507,37.571,284.507,37.778 M290.025,35.927
	c0.764,0,1.025-0.175,1.025-0.938c0-2.672-1.116-4.11-3.11-4.11c-2.234,0-3.318,1.674-3.379,5.049H290.025z"/>
<path fill="#990000" d="M300.712,42.475l1.791,0.059v1.233h-7.723v-1.233l1.38-0.059c0.822-0.028,0.969-0.266,0.969-1.086v-8.925
	c0-1.029-0.381-1.146-1.763-1.146h-0.88v-1.145l5.107-0.351v4.138c0.912-2.79,2.409-4.229,4.289-4.229
	c1.586,0,2.67,1.087,2.67,2.496c0,1.086-0.732,1.819-1.701,1.819c-1.088,0-1.732-0.673-1.732-1.674c0-0.528,0.205-0.997,0.588-1.259
	h-0.177c-1.85,0-3.788,2.788-3.788,7.134v3.141C299.742,42.209,299.89,42.446,300.712,42.475"/>
<path fill="#990000" d="M308.462,38.393c0.733,3.024,2.465,4.61,4.813,4.61c1.88,0,3.085-0.97,3.085-2.437
	c0-1.557-1.175-1.879-3.085-2.26c-3.55-0.735-5.693-1.352-5.693-4.612c0-2.436,1.644-3.963,4.081-3.963
	c1.407,0,2.495,0.264,3.698,1.146l0.85-1.029h0.912v4.874h-0.912c-0.82-2.553-2.289-3.844-4.374-3.844
	c-1.644,0-2.671,0.911-2.671,2.025c0,1.731,1.263,1.938,3.669,2.408c3.467,0.675,5.258,1.469,5.258,4.402
	c0,2.82-1.852,4.581-4.904,4.581c-1.38,0-2.612-0.44-3.848-1.438l-0.969,1.352h-0.968v-5.814H308.462"/>
<path fill="#990000" d="M319.06,42.533l1.409-0.059c0.821-0.03,0.997-0.266,0.997-1.086v-8.925c0-0.969-0.353-1.176-1.614-1.176
	c-0.235,0-0.529,0.028-0.852,0.028v-1.145l5.137-0.351v11.568c0,0.851,0.177,1.056,0.999,1.086l1.293,0.059v1.233h-7.369V42.533
	 M324.49,24.27c0,0.969-0.793,1.732-1.761,1.732c-0.97,0-1.733-0.822-1.733-1.732c0-0.939,0.794-1.733,1.733-1.733
	S324.49,23.301,324.49,24.27"/>
<path fill="#990000" d="M326.131,31.464V30.29c2.41-0.177,3.788-2.261,3.937-6.079h1.233v5.961h4.227v1.292h-4.375v8.486
	c0,1.674,0.322,2.496,1.732,2.496c1.615,0,2.349-1.291,2.438-3.993h1.088v0.381c0,3.554-1.616,5.432-4.581,5.432
	c-2.644,0-3.349-1.291-3.349-4.052v-8.75H326.131"/>
<path fill="#990000" d="M338.728,32.667c-0.206-0.441-0.439-0.792-0.674-0.938c-0.354-0.234-0.882-0.323-1.587-0.323v-1.235h6.842
	v1.235h-0.733c-0.851,0-1.177,0.089-1.177,0.617c0,0.175,0.117,0.469,0.295,0.911l3.11,7.165l2.938-7.049
	c0.061-0.176,0.146-0.351,0.146-0.645c0-0.822-0.585-0.969-2.056-0.998v-1.235h5.669v1.235c-1.088,0-1.732,0.498-2.203,1.585
	l-4.961,11.539c-1.527,3.552-3.143,5.343-5.697,5.343c-1.732,0-2.7-0.881-2.7-2.259c0-0.971,0.733-1.734,1.761-1.734
	c0.939,0,1.527,0.558,1.527,1.438c0,0.5-0.233,0.735-0.233,0.851c0,0.207,0.177,0.324,0.527,0.324c0.939,0,2.406-1.556,3.671-4.608
	l0.206-0.471L338.728,32.667"/>
<g>
	<defs>
		<rect id="SVGID_1_" x="3.77" y="5.356" width="347.73" height="58.855"/>
	</defs>
	<clipPath id="SVGID_2_">
		<use xlink:href="#SVGID_1_"  overflow="visible"/>
	</clipPath>
	<path clip-path="url(#SVGID_2_)" fill="#FFFFFF" d="M53.318,11.493c-13.813-8.431-35.577-7.926-49.546,0v22.109
		c-0.168,11.905,7.499,22.995,17.87,28.119c2.284,1.123,4.399,1.902,6.904,2.49c2.505-0.588,4.62-1.367,6.904-2.49
		C45.817,56.6,53.486,45.508,53.316,33.603L53.318,11.493"/>
</g>
<path fill="#990000" d="M45.301,54.147L34.874,5.661c-0.438-0.044-0.879-0.071-1.316-0.103l8.76,51.548
	C43.375,56.186,44.37,55.196,45.301,54.147"/>
<path fill="#990000" d="M53.268,35.367L41.23,6.717c-0.462-0.108-0.927-0.196-1.393-0.287l12.761,33.827
	C52.963,38.657,53.185,37.023,53.268,35.367"/>
<path fill="#990000" d="M35.45,61.718c0.787-0.39,1.552-0.824,2.307-1.279L31.779,5.424c-0.469-0.021-0.942-0.02-1.417-0.032
	l3.625,57.001C34.472,62.18,34.954,61.961,35.45,61.718"/>
<path fill="#990000" d="M50.682,45.885L37.994,6.083c-0.441-0.073-0.888-0.129-1.333-0.19l12.024,43.73
	C49.433,48.424,50.103,47.175,50.682,45.885"/>
<path fill="#990000" d="M53.32,11.49c-3.047-1.86-6.493-3.258-10.141-4.264l10.137,21.239L53.32,11.49"/>
<g>
	<defs>
		<rect id="SVGID_3_" x="3.77" y="5.356" width="347.73" height="58.855"/>
	</defs>
	<clipPath id="SVGID_4_">
		<use xlink:href="#SVGID_3_"  overflow="visible"/>
	</clipPath>
	<path clip-path="url(#SVGID_4_)" fill="#990000" d="M3.772,11.49v22.109c-0.17,11.907,7.499,22.997,17.87,28.119
		c2.284,1.127,4.399,1.906,6.904,2.493V5.356C19.652,5.429,10.741,7.536,3.772,11.49 M19.083,31.695l1.384,4.253l-3.614-2.629
		l-3.608,2.629l1.382-4.253l-3.597-2.617h4.445l1.378-4.227l1.386,4.227h4.439L19.083,31.695z"/>
</g>
</svg>